<svg xmlns="http://www.w3.org/2000/svg" xmlns:xlink="http://www.w3.org/1999/xlink" width="491" zoomAndPan="magnify" viewBox="0 0 368.25 186.749995" height="249" preserveAspectRatio="xMidYMid meet" version="1.0"><defs><g/></defs><g fill="#737373" fill-opacity="1"><g transform="translate(1.467115, 135.551262)"><g><path d="M 19.878906 0 L 19.878906 -1.511719 C 14.996094 -1.511719 11.507812 -4.300781 13.601562 -9.300781 L 21.273438 -27.78125 L 54.75 -27.78125 L 61.378906 -11.625 C 63.703125 -6.042969 63.355469 -1.511719 57.308594 -1.511719 L 54.171875 -1.511719 L 54.171875 0 L 86.835938 0 L 86.835938 -1.511719 C 81.023438 -1.511719 77.417969 -4.070312 74.164062 -11.742188 L 43.59375 -84.742188 L 23.25 -84.742188 L 23.25 -83.230469 C 27.898438 -83.230469 32.082031 -82.070312 33.945312 -77.417969 L 37.199219 -69.515625 L 11.855469 -8.835938 C 10.113281 -4.648438 5.578125 -1.511719 1.742188 -1.511719 L 1.742188 0 Z M 38.011719 -67.769531 L 54.054688 -29.292969 L 21.96875 -29.292969 Z M 38.011719 -67.769531 "/></g></g></g><g fill="#737373" fill-opacity="1"><g transform="translate(94.926488, 135.551262)"><g><path d="M 5.8125 -42.546875 C 5.8125 -18.25 24.410156 1.394531 47.429688 1.394531 C 70.445312 1.394531 89.394531 -18.25 89.394531 -42.546875 C 89.394531 -66.726562 70.445312 -86.023438 47.429688 -86.023438 C 24.410156 -86.023438 5.8125 -66.726562 5.8125 -42.546875 Z M 46.265625 -84.394531 C 67.074219 -84.394531 75.445312 -62.890625 75.445312 -41.265625 C 75.445312 -18.949219 67.191406 -0.234375 48.589844 -0.234375 C 28.363281 -0.234375 19.761719 -21.390625 19.761719 -43.824219 C 19.761719 -65.332031 28.710938 -84.394531 46.265625 -84.394531 Z M 46.265625 -84.394531 "/></g></g></g><g fill="#737373" fill-opacity="1"><g transform="translate(195.011684, 135.551262)"><g><path d="M 3.488281 -83.230469 C 9.066406 -83.230469 11.507812 -82.300781 11.507812 -76.953125 L 11.507812 -6.507812 C 11.160156 -1.511719 8.601562 -1.511719 3.488281 -1.511719 L 3.488281 0 L 66.375 0 L 74.628906 -33.363281 L 73.117188 -33.363281 C 67.769531 -15.578125 59.867188 -1.511719 39.988281 -1.511719 C 28.132812 -1.511719 24.410156 -2.09375 24.410156 -7.671875 L 24.410156 -76.953125 C 24.410156 -82.300781 26.851562 -83.230469 32.433594 -83.230469 L 32.433594 -84.742188 L 3.488281 -84.742188 Z M 3.488281 -83.230469 "/></g></g></g><g fill="#737373" fill-opacity="1"><g transform="translate(277.428011, 135.551262)"><g><path d="M 19.878906 0 L 19.878906 -1.511719 C 14.996094 -1.511719 11.507812 -4.300781 13.601562 -9.300781 L 21.273438 -27.78125 L 54.75 -27.78125 L 61.378906 -11.625 C 63.703125 -6.042969 63.355469 -1.511719 57.308594 -1.511719 L 54.171875 -1.511719 L 54.171875 0 L 86.835938 0 L 86.835938 -1.511719 C 81.023438 -1.511719 77.417969 -4.070312 74.164062 -11.742188 L 43.59375 -84.742188 L 23.25 -84.742188 L 23.25 -83.230469 C 27.898438 -83.230469 32.082031 -82.070312 33.945312 -77.417969 L 37.199219 -69.515625 L 11.855469 -8.835938 C 10.113281 -4.648438 5.578125 -1.511719 1.742188 -1.511719 L 1.742188 0 Z M 38.011719 -67.769531 L 54.054688 -29.292969 L 21.96875 -29.292969 Z M 38.011719 -67.769531 "/></g></g></g><g fill="#737373" fill-opacity="1"><g transform="translate(56.172052, 176.966652)"><g><path d="M 0.355469 -12.886719 L 0.355469 -12.675781 C 1.359375 -12.675781 1.875 -12.515625 1.875 -11.863281 L 1.875 0 L 2.105469 0 C 2.105469 -0.460938 2.367188 -0.726562 2.933594 -0.671875 C 3.675781 -0.582031 4.101562 0.210938 5.746094 0.210938 C 8.644531 0.210938 10.414062 -1.804688 10.414062 -4.417969 C 10.414062 -7.691406 8.433594 -8.925781 6.859375 -8.925781 C 5.480469 -8.925781 4.667969 -8.574219 3.710938 -7.425781 L 3.640625 -7.425781 L 3.640625 -13.523438 Z M 3.640625 -6.257812 C 3.640625 -7.441406 4.933594 -8.433594 6.0625 -8.433594 C 7.65625 -8.433594 8.644531 -7.335938 8.644531 -4.738281 C 8.644531 -1.910156 7.371094 -0.300781 5.390625 -0.300781 C 4.703125 -0.300781 3.640625 -0.496094 3.640625 -2.332031 Z M 3.640625 -6.257812 "/></g></g></g><g fill="#737373" fill-opacity="1"><g transform="translate(73.053654, 176.966652)"><g><path d="M 0.53125 -7.847656 C 1.449219 -7.847656 1.996094 -7.582031 1.996094 -6.875 L 1.996094 -1.183594 C 1.996094 -0.371094 1.589844 -0.230469 0.742188 -0.230469 L 0.742188 0 L 5.019531 0 L 5.019531 -0.230469 C 4.207031 -0.230469 3.765625 -0.355469 3.765625 -1.183594 L 3.765625 -8.714844 L 0.53125 -8.078125 Z M 2.882812 -10.324219 C 3.410156 -10.324219 3.855469 -10.746094 3.855469 -11.277344 C 3.855469 -11.808594 3.410156 -12.234375 2.882812 -12.234375 C 2.351562 -12.234375 1.925781 -11.808594 1.925781 -11.277344 C 1.925781 -10.746094 2.351562 -10.324219 2.882812 -10.324219 Z M 2.882812 -10.324219 "/></g></g></g><g fill="#737373" fill-opacity="1"><g transform="translate(84.01435, 176.966652)"><g><path d="M 0.53125 4.152344 C 2.421875 4.152344 4.046875 3.730469 4.046875 1.238281 L 4.046875 -8.910156 L 0.742188 -8.078125 L 0.742188 -7.867188 C 1.660156 -7.867188 2.28125 -7.601562 2.28125 -6.894531 L 2.28125 1.855469 C 2.28125 3.484375 1.644531 3.925781 0.53125 3.925781 Z M 2.191406 -11.277344 C 2.191406 -10.746094 2.617188 -10.324219 3.148438 -10.324219 C 3.675781 -10.324219 4.117188 -10.746094 4.117188 -11.277344 C 4.117188 -11.808594 3.675781 -12.234375 3.148438 -12.234375 C 2.617188 -12.234375 2.191406 -11.808594 2.191406 -11.277344 Z M 2.191406 -11.277344 "/></g></g></g><g fill="#737373" fill-opacity="1"><g transform="translate(94.88667, 176.966652)"><g><path d="M 0.707031 -4.4375 C 0.707031 -1.609375 2.316406 0.210938 5.214844 0.210938 C 7.972656 0.210938 9.722656 -1.609375 9.722656 -4.4375 C 9.722656 -7.054688 8.167969 -8.925781 5.214844 -8.925781 C 2.421875 -8.925781 0.707031 -7.054688 0.707031 -4.4375 Z M 5.039062 -8.699219 C 6.984375 -8.699219 7.777344 -6.257812 7.777344 -4.261719 C 7.777344 -2.261719 7.070312 -0.0195312 5.390625 -0.0195312 C 3.445312 -0.0195312 2.652344 -2.667969 2.652344 -4.613281 C 2.652344 -6.558594 3.359375 -8.699219 5.039062 -8.699219 Z M 5.039062 -8.699219 "/></g></g></g><g fill="#737373" fill-opacity="1"><g transform="translate(111.078968, 176.966652)"><g><path d="M 0.355469 -8.714844 L 0.355469 -8.484375 C 1.183594 -8.484375 1.609375 -8.34375 1.609375 -7.511719 L 1.609375 -2.105469 C 1.609375 -0.160156 2.792969 0.210938 4.3125 0.210938 C 5.957031 0.210938 6.613281 -0.460938 7.089844 -1.148438 L 7.089844 0 L 10.324219 0 L 10.324219 -0.230469 C 9.316406 -0.230469 8.855469 -0.390625 8.855469 -1.574219 L 8.855469 -8.714844 L 5.832031 -8.714844 L 5.832031 -8.484375 C 6.789062 -8.484375 7.089844 -8.34375 7.089844 -7.53125 L 7.089844 -1.695312 C 6.753906 -0.953125 6.097656 -0.246094 4.984375 -0.246094 C 3.675781 -0.246094 3.375 -1.0625 3.375 -2.140625 L 3.375 -8.714844 Z M 0.355469 -8.714844 "/></g></g></g><g fill="#737373" fill-opacity="1"><g transform="translate(127.341967, 176.966652)"><g><path d="M 0.175781 -0.230469 L 0.175781 0 L 2.617188 0 L 2.617188 -0.230469 C 1.996094 -0.230469 1.75 -0.441406 2.015625 -0.902344 L 4.082031 -3.710938 L 5.621094 -0.953125 C 5.886719 -0.425781 5.585938 -0.230469 4.84375 -0.230469 L 4.84375 0 L 8.996094 0 L 8.996094 -0.230469 C 8.113281 -0.230469 7.761719 -0.425781 7.460938 -0.953125 L 5.125 -5.109375 L 7.300781 -8.078125 C 7.566406 -8.46875 8.042969 -8.484375 8.660156 -8.484375 L 8.660156 -8.714844 L 6.347656 -8.714844 L 6.347656 -8.484375 C 6.910156 -8.484375 7.265625 -8.363281 7.035156 -8.042969 L 5.003906 -5.320312 L 3.570312 -7.902344 C 3.339844 -8.378906 3.660156 -8.484375 4.277344 -8.484375 L 4.277344 -8.714844 L 0.476562 -8.714844 L 0.476562 -8.484375 C 1.132812 -8.484375 1.46875 -8.378906 1.75 -7.882812 L 3.960938 -3.925781 L 1.769531 -0.972656 C 1.433594 -0.441406 0.8125 -0.230469 0.175781 -0.230469 Z M 0.175781 -0.230469 "/></g></g></g><g fill="#737373" fill-opacity="1"><g transform="translate(142.279391, 176.966652)"><g/></g></g><g fill="#737373" fill-opacity="1"><g transform="translate(152.992652, 176.966652)"><g><path d="M 0.53125 -7.847656 C 1.449219 -7.847656 1.996094 -7.582031 1.996094 -6.875 L 1.996094 -1.183594 C 1.996094 -0.371094 1.589844 -0.230469 0.742188 -0.230469 L 0.742188 0 L 5.019531 0 L 5.019531 -0.230469 C 4.207031 -0.230469 3.765625 -0.355469 3.765625 -1.183594 L 3.765625 -8.714844 L 0.53125 -8.078125 Z M 2.882812 -10.324219 C 3.410156 -10.324219 3.855469 -10.746094 3.855469 -11.277344 C 3.855469 -11.808594 3.410156 -12.234375 2.882812 -12.234375 C 2.351562 -12.234375 1.925781 -11.808594 1.925781 -11.277344 C 1.925781 -10.746094 2.351562 -10.324219 2.882812 -10.324219 Z M 2.882812 -10.324219 "/></g></g></g><g fill="#737373" fill-opacity="1"><g transform="translate(163.953351, 176.966652)"><g><path d="M 0.53125 -8.078125 L 0.53125 -7.847656 C 1.449219 -7.847656 1.996094 -7.582031 1.996094 -6.875 L 1.996094 -1.183594 C 1.996094 -0.371094 1.609375 -0.230469 0.742188 -0.230469 L 0.742188 0 L 5.195312 0 L 5.195312 -0.230469 C 4.402344 -0.230469 3.765625 -0.355469 3.765625 -1.183594 L 3.765625 -6.433594 C 3.765625 -7.476562 4.824219 -8.433594 6.0625 -8.433594 C 7.246094 -8.433594 7.65625 -7.726562 7.65625 -6.363281 L 7.65625 -1.183594 C 7.65625 -0.371094 7.265625 -0.230469 6.417969 -0.230469 L 6.417969 0 L 10.675781 0 L 10.675781 -0.230469 C 9.847656 -0.230469 9.421875 -0.371094 9.421875 -1.203125 L 9.421875 -6.082031 C 9.421875 -8.328125 7.882812 -8.925781 6.648438 -8.925781 C 5.109375 -8.925781 4.296875 -8.238281 3.765625 -7.40625 L 3.765625 -8.714844 Z M 0.53125 -8.078125 "/></g></g></g><g fill="#737373" fill-opacity="1"><g transform="translate(180.56984, 176.966652)"><g><path d="M 0.355469 -8.484375 L 1.660156 -8.484375 L 1.660156 -1.890625 C 1.660156 -0.390625 2.15625 0.230469 3.730469 0.230469 C 5.160156 0.230469 5.640625 -0.847656 5.640625 -1.714844 L 5.410156 -1.714844 C 5.410156 -1.113281 5.089844 -0.265625 4.296875 -0.265625 C 3.570312 -0.265625 3.429688 -0.777344 3.429688 -1.714844 L 3.429688 -8.484375 L 5.320312 -8.484375 L 5.320312 -8.714844 L 3.429688 -8.714844 L 3.429688 -11.773438 L 3.199219 -11.773438 C 2.96875 -10.449219 2.261719 -8.960938 0.355469 -8.714844 Z M 0.355469 -8.484375 "/></g></g></g><g fill="#737373" fill-opacity="1"><g transform="translate(191.972394, 176.966652)"><g><path d="M 5.195312 0.210938 C 7.992188 0.210938 8.980469 -1.820312 9.035156 -3.871094 L 8.804688 -3.871094 C 8.804688 -2.96875 8.328125 -0.761719 5.886719 -0.761719 C 3.570312 -0.761719 2.476562 -2.546875 2.476562 -5.019531 C 2.476562 -5.179688 2.476562 -5.339844 2.492188 -5.496094 L 8.804688 -5.496094 C 8.804688 -7.371094 7.546875 -8.925781 5.410156 -8.925781 C 2.457031 -8.925781 0.707031 -6.648438 0.707031 -4.3125 C 0.707031 -1.695312 2.226562 0.210938 5.195312 0.210938 Z M 2.527344 -5.726562 C 2.757812 -7.441406 3.820312 -8.574219 5.234375 -8.574219 C 7.089844 -8.574219 7.320312 -7.019531 7.320312 -5.726562 Z M 2.527344 -5.726562 "/></g></g></g><g fill="#737373" fill-opacity="1"><g transform="translate(207.210287, 176.966652)"><g><path d="M 9.421875 -6.082031 C 9.421875 -7.140625 10.375 -8.484375 11.738281 -8.484375 C 12.90625 -8.484375 13.328125 -7.707031 13.328125 -6.363281 L 13.328125 -1.183594 C 13.328125 -0.371094 12.921875 -0.210938 12.074219 -0.210938 L 12.074219 0 L 16.351562 0 L 16.351562 -0.210938 C 15.503906 -0.210938 15.097656 -0.371094 15.097656 -1.183594 L 15.097656 -6.082031 C 15.097656 -8.328125 13.558594 -8.925781 12.320312 -8.925781 C 10.625 -8.925781 9.792969 -8.097656 9.28125 -7.160156 C 8.875 -8.519531 7.65625 -8.925781 6.648438 -8.925781 C 5.109375 -8.925781 4.277344 -8.238281 3.765625 -7.40625 L 3.765625 -8.714844 L 0.53125 -8.078125 L 0.53125 -7.847656 C 1.449219 -7.847656 1.996094 -7.582031 1.996094 -6.875 L 1.996094 -1.183594 C 1.996094 -0.371094 1.609375 -0.230469 0.742188 -0.230469 L 0.742188 0 L 5.195312 0 L 5.195312 -0.230469 C 4.402344 -0.230469 3.765625 -0.355469 3.765625 -1.183594 L 3.765625 -6.097656 C 3.765625 -7.140625 4.703125 -8.484375 6.0625 -8.484375 C 7.246094 -8.484375 7.65625 -7.726562 7.65625 -6.363281 L 7.65625 -1.183594 C 7.65625 -0.371094 7.265625 -0.230469 6.417969 -0.230469 L 6.417969 0 L 10.675781 0 L 10.675781 -0.230469 C 9.847656 -0.230469 9.421875 -0.371094 9.421875 -1.203125 Z M 9.421875 -6.082031 "/></g></g></g><g fill="#737373" fill-opacity="1"><g transform="translate(229.500244, 176.966652)"><g><path d="M 0.53125 -8.078125 L 0.53125 -7.867188 C 1.449219 -7.867188 1.996094 -7.53125 1.996094 -6.648438 L 1.996094 2.96875 C 1.996094 3.78125 1.414062 3.925781 0.761719 3.925781 L 0.761719 4.152344 L 5.019531 4.152344 L 5.019531 3.925781 C 4.347656 3.925781 3.765625 3.78125 3.765625 2.96875 L 3.765625 -0.882812 L 3.835938 -0.882812 C 4.171875 -0.175781 5.25 0.210938 6.222656 0.210938 C 8.820312 0.210938 10.765625 -1.433594 10.765625 -4.402344 C 10.765625 -6.929688 9.28125 -8.925781 6.523438 -8.925781 C 5.390625 -8.925781 4.242188 -8.328125 3.835938 -7.285156 L 3.765625 -7.285156 L 3.765625 -8.714844 Z M 3.765625 -5.90625 C 3.765625 -7.210938 4.703125 -8.539062 6.167969 -8.539062 C 7.691406 -8.539062 8.996094 -7.210938 8.996094 -4.402344 C 8.996094 -1.730469 7.917969 -0.265625 5.957031 -0.265625 C 4.808594 -0.265625 3.765625 -0.777344 3.765625 -2.296875 Z M 3.765625 -5.90625 "/></g></g></g><g fill="#737373" fill-opacity="1"><g transform="translate(246.735339, 176.966652)"><g><path d="M 0.707031 -4.4375 C 0.707031 -1.609375 2.316406 0.210938 5.214844 0.210938 C 7.972656 0.210938 9.722656 -1.609375 9.722656 -4.4375 C 9.722656 -7.054688 8.167969 -8.925781 5.214844 -8.925781 C 2.421875 -8.925781 0.707031 -7.054688 0.707031 -4.4375 Z M 5.039062 -8.699219 C 6.984375 -8.699219 7.777344 -6.257812 7.777344 -4.261719 C 7.777344 -2.261719 7.070312 -0.0195312 5.390625 -0.0195312 C 3.445312 -0.0195312 2.652344 -2.667969 2.652344 -4.613281 C 2.652344 -6.558594 3.359375 -8.699219 5.039062 -8.699219 Z M 5.039062 -8.699219 "/></g></g></g><g fill="#737373" fill-opacity="1"><g transform="translate(262.927628, 176.966652)"><g><path d="M 0.53125 -8.078125 L 0.53125 -7.847656 C 1.449219 -7.847656 1.996094 -7.546875 1.996094 -6.839844 L 1.996094 -1.183594 C 1.996094 -0.371094 1.589844 -0.230469 0.742188 -0.230469 L 0.742188 0 L 5.019531 0 L 5.019531 -0.230469 C 4.207031 -0.230469 3.800781 -0.355469 3.765625 -1.113281 L 3.765625 -6.027344 C 4.296875 -7.582031 5.125 -7.796875 5.867188 -7.796875 C 7.019531 -7.796875 7.742188 -7.460938 8.21875 -6.203125 L 8.449219 -6.203125 L 7.953125 -8.519531 C 7.953125 -8.519531 7.40625 -8.925781 6.363281 -8.925781 C 4.738281 -8.925781 4.191406 -7.617188 3.835938 -6.859375 L 3.765625 -6.859375 L 3.765625 -8.714844 Z M 0.53125 -8.078125 "/></g></g></g><g fill="#737373" fill-opacity="1"><g transform="translate(277.582247, 176.966652)"><g><path d="M 5.195312 0.210938 C 7.992188 0.210938 8.980469 -1.820312 9.035156 -3.871094 L 8.804688 -3.871094 C 8.804688 -2.96875 8.328125 -0.761719 5.886719 -0.761719 C 3.570312 -0.761719 2.476562 -2.546875 2.476562 -5.019531 C 2.476562 -5.179688 2.476562 -5.339844 2.492188 -5.496094 L 8.804688 -5.496094 C 8.804688 -7.371094 7.546875 -8.925781 5.410156 -8.925781 C 2.457031 -8.925781 0.707031 -6.648438 0.707031 -4.3125 C 0.707031 -1.695312 2.226562 0.210938 5.195312 0.210938 Z M 2.527344 -5.726562 C 2.757812 -7.441406 3.820312 -8.574219 5.234375 -8.574219 C 7.089844 -8.574219 7.320312 -7.019531 7.320312 -5.726562 Z M 2.527344 -5.726562 "/></g></g></g><g fill="#737373" fill-opacity="1"><g transform="translate(292.820141, 176.966652)"><g><path d="M 0.53125 -12.65625 C 1.449219 -12.65625 2.015625 -12.550781 2.015625 -11.84375 L 2.015625 -1.183594 C 2.015625 -0.355469 1.609375 -0.230469 0.761719 -0.230469 L 0.761719 0 L 5.003906 0 L 5.003906 -0.230469 C 4.171875 -0.230469 3.78125 -0.355469 3.78125 -1.183594 L 3.78125 -13.523438 L 0.53125 -12.886719 Z M 0.53125 -12.65625 "/></g></g></g><g fill="#737373" fill-opacity="1"><g transform="translate(303.763151, 176.966652)"><g><path d="M 0.9375 0 C 0.9375 -0.230469 1.042969 -0.390625 1.238281 -0.425781 C 1.945312 -0.566406 2.316406 0.210938 4.011719 0.210938 C 5.796875 0.210938 7 -0.847656 7.019531 -2.316406 C 7.019531 -5.65625 2.316406 -4.753906 2.351562 -7.355469 C 2.351562 -8.097656 2.882812 -8.589844 3.675781 -8.589844 C 5.179688 -8.589844 6.0625 -7.335938 6.0625 -5.832031 L 6.3125 -5.832031 L 6.292969 -8.714844 L 6.0625 -8.714844 C 6.0625 -8.484375 5.976562 -8.273438 5.726562 -8.273438 C 5.179688 -8.273438 4.648438 -8.925781 3.5 -8.925781 C 1.839844 -8.925781 0.742188 -7.953125 0.742188 -6.417969 C 0.761719 -3.269531 5.410156 -4.332031 5.410156 -1.574219 C 5.410156 -0.742188 4.824219 -0.140625 3.625 -0.140625 C 2.546875 -0.140625 0.9375 -0.917969 0.9375 -3.660156 L 0.707031 -3.660156 L 0.707031 0 Z M 0.9375 0 "/></g></g></g><g fill="#737373" fill-opacity="1"><g transform="translate(113.952742, 21.382552)"><g><path d="M 3.660156 0 L 3.660156 -0.277344 C 2.761719 -0.277344 2.121094 -0.792969 2.503906 -1.714844 L 3.917969 -5.117188 L 10.085938 -5.117188 L 11.308594 -2.140625 C 11.734375 -1.113281 11.671875 -0.277344 10.558594 -0.277344 L 9.980469 -0.277344 L 9.980469 0 L 15.996094 0 L 15.996094 -0.277344 C 14.925781 -0.277344 14.261719 -0.75 13.664062 -2.164062 L 8.03125 -15.613281 L 4.28125 -15.613281 L 4.28125 -15.332031 C 5.140625 -15.332031 5.910156 -15.121094 6.253906 -14.261719 L 6.851562 -12.804688 L 2.183594 -1.628906 C 1.863281 -0.855469 1.027344 -0.277344 0.320312 -0.277344 L 0.320312 0 Z M 7.003906 -12.484375 L 9.957031 -5.398438 L 4.046875 -5.398438 Z M 7.003906 -12.484375 "/></g></g></g><g fill="#737373" fill-opacity="1"><g transform="translate(137.253325, 21.382552)"><g><path d="M 0.707031 -11.5625 C 1.242188 -14.433594 2.890625 -15.332031 5.183594 -15.332031 L 6.746094 -15.332031 L 6.746094 -1.433594 C 6.746094 -0.449219 6.296875 -0.277344 5.269531 -0.277344 L 5.269531 0 L 10.601562 0 L 10.601562 -0.277344 C 9.574219 -0.277344 9.101562 -0.449219 9.101562 -1.433594 L 9.101562 -15.332031 L 10.644531 -15.332031 C 12.957031 -15.332031 14.605469 -14.433594 15.140625 -11.5625 L 15.417969 -11.5625 L 14.710938 -15.613281 L 1.136719 -15.613281 L 0.429688 -11.5625 Z M 0.707031 -11.5625 "/></g></g></g><g fill="#737373" fill-opacity="1"><g transform="translate(160.082819, 21.382552)"><g><path d="M 0.640625 0 L 12.226562 0 L 13.75 -6.144531 L 13.46875 -6.144531 C 12.484375 -2.871094 11.027344 -0.277344 7.367188 -0.277344 C 5.183594 -0.277344 4.496094 -0.449219 4.496094 -1.433594 L 4.496094 -8.050781 L 6.960938 -8.050781 C 9.421875 -8.050781 9.421875 -6.703125 9.421875 -4.519531 L 9.699219 -4.519531 L 9.699219 -11.605469 L 9.421875 -11.605469 C 9.421875 -9.445312 9.273438 -8.351562 6.960938 -8.332031 L 4.496094 -8.332031 L 4.496094 -14.175781 C 4.496094 -15.183594 5.375 -15.3125 8.460938 -15.3125 C 10.878906 -15.3125 11.777344 -14.667969 12.570312 -12.226562 L 12.847656 -12.226562 L 11.714844 -15.613281 L 0.640625 -15.613281 L 0.640625 -15.332031 C 1.671875 -15.332031 2.121094 -15.183594 2.121094 -14.175781 L 2.140625 -1.21875 C 2.054688 -0.429688 1.585938 -0.277344 0.640625 -0.277344 Z M 0.640625 0 "/></g></g></g><g fill="#737373" fill-opacity="1"><g transform="translate(181.370538, 21.382552)"><g><path d="M 0.640625 -15.332031 C 1.671875 -15.332031 2.121094 -15.160156 2.121094 -14.175781 L 2.121094 -1.199219 C 2.054688 -0.277344 1.585938 -0.277344 0.640625 -0.277344 L 0.640625 0 L 12.226562 0 L 13.75 -6.144531 L 13.46875 -6.144531 C 12.484375 -2.871094 11.027344 -0.277344 7.367188 -0.277344 C 5.183594 -0.277344 4.496094 -0.386719 4.496094 -1.414062 L 4.496094 -14.175781 C 4.496094 -15.160156 4.945312 -15.332031 5.976562 -15.332031 L 5.976562 -15.613281 L 0.640625 -15.613281 Z M 0.640625 -15.332031 "/></g></g></g><g fill="#737373" fill-opacity="1"><g transform="translate(202.636851, 21.382552)"><g><path d="M 2.121094 -1.433594 C 2.121094 -0.429688 1.671875 -0.277344 0.640625 -0.277344 L 0.640625 0 L 5.976562 0 L 5.953125 -0.277344 C 4.945312 -0.277344 4.476562 -0.429688 4.476562 -1.433594 L 4.476562 -14.175781 C 4.476562 -15.183594 4.945312 -15.332031 5.976562 -15.332031 L 5.976562 -15.613281 L 0.640625 -15.613281 L 0.640625 -15.332031 C 1.671875 -15.332031 2.121094 -15.183594 2.121094 -14.175781 Z M 2.121094 -1.433594 "/></g></g></g><g fill="#737373" fill-opacity="1"><g transform="translate(216.23716, 21.382552)"><g><path d="M 0.640625 0 L 12.226562 0 L 13.75 -6.144531 L 13.46875 -6.144531 C 12.484375 -2.871094 11.027344 -0.277344 7.367188 -0.277344 C 5.183594 -0.277344 4.496094 -0.449219 4.496094 -1.433594 L 4.496094 -8.050781 L 6.960938 -8.050781 C 9.421875 -8.050781 9.421875 -6.703125 9.421875 -4.519531 L 9.699219 -4.519531 L 9.699219 -11.605469 L 9.421875 -11.605469 C 9.421875 -9.445312 9.273438 -8.351562 6.960938 -8.332031 L 4.496094 -8.332031 L 4.496094 -14.175781 C 4.496094 -15.183594 5.375 -15.3125 8.460938 -15.3125 C 10.878906 -15.3125 11.777344 -14.667969 12.570312 -12.226562 L 12.847656 -12.226562 L 11.714844 -15.613281 L 0.640625 -15.613281 L 0.640625 -15.332031 C 1.671875 -15.332031 2.121094 -15.183594 2.121094 -14.175781 L 2.140625 -1.21875 C 2.054688 -0.429688 1.585938 -0.277344 0.640625 -0.277344 Z M 0.640625 0 "/></g></g></g><g fill="#737373" fill-opacity="1"><g transform="translate(237.524883, 21.382552)"><g><path d="M 0.640625 0 L 5.953125 0 L 5.953125 -0.277344 C 4.925781 -0.277344 4.476562 -0.449219 4.476562 -1.433594 L 4.476562 -7.902344 L 6.339844 -7.902344 L 10.085938 -2.460938 C 10.898438 -1.285156 11.886719 0 13.664062 0 L 15.78125 0 L 15.78125 -0.277344 C 14.96875 -0.277344 14.261719 -0.515625 13.621094 -1.433594 L 9.765625 -7.023438 C 9.445312 -6.765625 9.058594 -6.617188 8.652344 -6.617188 C 7.964844 -6.617188 7.21875 -7.023438 6.660156 -7.902344 L 7.558594 -7.902344 C 10.066406 -7.902344 13.191406 -8.4375 13.191406 -11.800781 C 13.191406 -15.226562 9.894531 -15.613281 6.722656 -15.613281 L 0.640625 -15.613281 L 0.640625 -15.332031 C 1.648438 -15.332031 2.121094 -15.183594 2.121094 -14.175781 L 2.121094 -1.433594 C 2.121094 -0.449219 1.648438 -0.277344 0.640625 -0.277344 Z M 4.476562 -8.179688 L 4.476562 -15.332031 L 7.152344 -15.332031 C 9.53125 -15.332031 10.859375 -14.089844 10.859375 -11.777344 C 10.859375 -8.910156 9.015625 -8.179688 6.746094 -8.179688 Z M 4.476562 -8.179688 "/></g></g></g></svg>